<?xml version="1.0" standalone="no"?><!DOCTYPE svg PUBLIC "-//W3C//DTD SVG 1.1//EN" "http://www.w3.org/Graphics/SVG/1.1/DTD/svg11.dtd"><svg t="1752026734933" class="icon" viewBox="0 0 1024 1024" version="1.1" xmlns="http://www.w3.org/2000/svg" p-id="17667" xmlns:xlink="http://www.w3.org/1999/xlink" width="200" height="200"><path d="M547.4 243.9c133.9-54.1 244.3 9.1 247.4 140.6 3.1 123.8-189.6 428.9-211.6 463.3-5.2 8.2-12.8 14.6-20.7 17.9-8.1 3.2-15.7 2.9-21.2-0.7-23.2-16-226.9-159.1-230-283-3-132 102.8-283.7 236.1-338.1z" fill="#26C0E4" p-id="17668"></path><path d="M232.7 460.3c-3.1 17.3-4.5 34.5-4.2 51.4l0.1 0.1v1.5c0.2 10.8 2.1 21.8 5.2 32.9 20.8 74.7 100.2 151.4 159.3 200.4l83 68.7c-59.1-49-138.4-125.8-159.2-200.5-3.1-11-4.9-21.9-5.2-32.9v-1.6l-0.1-0.1c-0.2-16.9 1.2-34.1 4.2-51.3 3.6-19.9 9.2-39.7 16.7-59.5 28.9-75.8 85.7-147.5 155.2-193.9 17.5-11.6 35.9-21.8 54.9-29.9l0.1 0.1c1.5-0.7 3.1-1.3 4.7-2 15.3-6.1 30.3-10.9 44.9-14 18.1-4 35.6-5.6 52.2-5.3 37.3 1 70 12.6 95.3 33.6l-83-68.7c-25.3-20.8-57.9-32.6-95.2-33.6-16.6-0.4-34.2 1.2-52.4 5.3-14.6 3.2-29.6 7.8-44.9 14.1-1.5 0.6-3.1 1.2-4.5 2l-0.1-0.1c-19 8.2-37.4 18.3-55.1 29.9-69.5 46.2-126.3 118-155.2 193.9-7.5 19.6-13.1 39.6-16.7 59.5" fill="#1E97B3" p-id="17669"></path><path d="M482.2 681l-42.1 28.7 46.5-266.6 43.4-29.7 47.6 202.4-42.8 29.2-5-27.2-42.7 29.2-4.9 34z m40.4-108l-14.5-74.4-13.4 93.3 27.9-18.9z m116.5 1.1l-56.3 38.4-0.5-234.5 57.6-39.4c45.1-29.9 67.9-8.1 68.7 65.5-0.3 81.8-23.5 138.5-69.5 170z m-14-170.6l0.2 125 9.2-6.3c20.5-13.1 30.5-41.3 30.4-84.6 0.9-44-9.7-57.3-31.5-39.7l-8.3 5.6z" fill="#011A1E" p-id="17670"></path><path d="M485.1 683.9L443 712.6 489.5 446l43.4-29.7 47.6 202.4-42.7 29.3-5-27.2L490 650l-4.9 33.9z m40.5-108l-14.5-74.3-13.4 93.3 27.9-19zM642 577l-56.3 38.4-0.5-234.5 57.6-39.4c45.1-29.9 67.9-8.1 68.7 65.5-0.3 81.9-23.5 138.5-69.5 170z m-13.9-170.6l0.2 125 9.2-6.3c20.5-13.1 30.5-41.3 30.4-84.6 0.9-44-9.7-57.3-31.5-39.7l-8.3 5.6z" fill="#FFFFFF" p-id="17671"></path></svg>