<?xml version="1.0" standalone="no"?><!DOCTYPE svg PUBLIC "-//W3C//DTD SVG 1.1//EN" "http://www.w3.org/Graphics/SVG/1.1/DTD/svg11.dtd"><svg t="1752026773566" class="icon" viewBox="0 0 1024 1024" version="1.1" xmlns="http://www.w3.org/2000/svg" p-id="18672" xmlns:xlink="http://www.w3.org/1999/xlink" width="200" height="200"><path d="M512 100v64H200a8 8 0 0 0-7.996 7.75L192 172v680a8 8 0 0 0 7.75 7.996l0.25 0.004h624a8 8 0 0 0 7.996-7.75L832 852V512h64v340c0 39.367-31.594 71.355-70.81 71.99L824 924H200c-39.367 0-71.355-31.594-71.99-70.81L128 852V172c0-39.367 31.594-71.355 70.81-71.99L200 100h312z" fill="#3F454B" p-id="18673"></path><path d="M836.433 115.75l55.134 32.5-224 380-55.134-32.5z" fill="#3F454B" p-id="18674"></path><path d="M652 241v64H272v-64zM539 576v64H272v-64zM448 417v64H272v-64z" fill="#397AFF" p-id="18675"></path></svg>