<?xml version="1.0" standalone="no"?><!DOCTYPE svg PUBLIC "-//W3C//DTD SVG 1.1//EN" "http://www.w3.org/Graphics/SVG/1.1/DTD/svg11.dtd"><svg t="1752026856295" class="icon" viewBox="0 0 1024 1024" version="1.1" xmlns="http://www.w3.org/2000/svg" p-id="24214" xmlns:xlink="http://www.w3.org/1999/xlink" width="200" height="200"><path d="M921.6 481.28h-51.2V972.8H153.6V481.28H102.4v517.12c0 15.36 10.24 25.6 25.6 25.6h768c15.36 0 25.6-10.24 25.6-25.6V481.28z" fill="#ffffff" p-id="24215"></path><path d="M998.4 230.4l-143.36-204.8c-10.24-5.12-15.36-10.24-25.6-10.24H189.44c-10.24 0-20.48 5.12-25.6 15.36L25.6 230.4c-5.12 5.12-5.12 10.24-5.12 20.48v153.6c5.12 71.68 66.56 128 143.36 128 51.2 0 92.16-25.6 117.76-61.44 25.6 40.96 66.56 61.44 112.64 61.44S486.4 512 512 471.04c25.6 35.84 66.56 61.44 117.76 61.44s87.04-20.48 117.76-61.44c25.6 35.84 66.56 61.44 117.76 61.44 71.68 0 133.12-56.32 143.36-128v-153.6c-5.12-10.24-5.12-15.36-10.24-20.48zM199.68 66.56H819.2l107.52 153.6H92.16l107.52-153.6z m665.6 414.72c-40.96 0-81.92-30.72-92.16-71.68H716.8c-10.24 40.96-46.08 71.68-87.04 71.68s-81.92-30.72-92.16-71.68h-51.2c-10.24 40.96-46.08 71.68-92.16 71.68S317.44 450.56 307.2 409.6H250.88c-10.24 40.96-46.08 71.68-87.04 71.68-51.2 0-92.16-40.96-92.16-92.16V271.36h880.64v133.12c-5.12 40.96-40.96 76.8-87.04 76.8zM199.68 814.08c20.48 10.24 35.84 15.36 56.32 15.36 20.48 0 35.84-5.12 35.84-15.36 0-10.24-10.24-15.36-25.6-20.48-20.48-5.12-40.96-15.36-46.08-25.6-10.24-10.24-15.36-20.48-15.36-35.84 0-20.48 5.12-30.72 20.48-40.96s35.84-15.36 56.32-15.36c15.36 0 30.72 0 51.2 5.12v40.96c-15.36-10.24-30.72-10.24-46.08-10.24-10.24 0-15.36 0-20.48 5.12s-10.24 5.12-10.24 10.24c0 10.24 10.24 15.36 25.6 20.48 15.36 5.12 30.72 10.24 35.84 15.36 10.24 5.12 15.36 10.24 20.48 20.48s5.12 15.36 5.12 25.6c0 20.48-5.12 35.84-20.48 46.08s-40.96 10.24-66.56 10.24c-20.48 0-40.96-5.12-56.32-10.24v-40.96zM378.88 691.2c10.24-5.12 20.48-10.24 35.84-10.24s25.6-5.12 35.84-5.12c51.2 0 76.8 25.6 76.8 76.8v112.64h-51.2v-25.6c-10.24 20.48-30.72 30.72-56.32 30.72-15.36 0-30.72-5.12-40.96-15.36s-20.48-25.6-20.48-40.96c0-35.84 20.48-56.32 61.44-61.44l51.2-5.12c0-20.48-10.24-30.72-35.84-30.72-20.48 0-40.96 5.12-61.44 20.48v-46.08z m56.32 87.04c-20.48 0-30.72 10.24-30.72 25.6 0 5.12 0 10.24 5.12 15.36 5.12 5.12 10.24 5.12 20.48 5.12s20.48-5.12 25.6-10.24c5.12-10.24 10.24-15.36 10.24-30.72V768l-30.72 10.24zM568.32 865.28v-271.36h51.2v271.36h-51.2zM834.56 788.48h-122.88c0 30.72 20.48 40.96 51.2 40.96 20.48 0 35.84-5.12 56.32-15.36v40.96c-15.36 10.24-40.96 15.36-66.56 15.36-30.72 0-51.2-10.24-66.56-25.6-15.36-15.36-25.6-40.96-25.6-71.68 0-30.72 10.24-51.2 25.6-71.68 15.36-20.48 40.96-25.6 66.56-25.6s46.08 10.24 61.44 25.6 20.48 35.84 20.48 66.56v20.48z m-51.2-35.84c0-25.6-10.24-40.96-35.84-40.96-10.24 0-15.36 5.12-25.6 10.24-5.12 5.12-10.24 15.36-15.36 30.72h76.8z" fill="#ffffff" p-id="24216"></path></svg>