<?xml version="1.0" standalone="no"?><!DOCTYPE svg PUBLIC "-//W3C//DTD SVG 1.1//EN" "http://www.w3.org/Graphics/SVG/1.1/DTD/svg11.dtd"><svg t="1752023416973" class="icon" viewBox="0 0 1024 1024" version="1.1" xmlns="http://www.w3.org/2000/svg" p-id="2487" xmlns:xlink="http://www.w3.org/1999/xlink" width="200" height="200"><path d="M828.952381 121.904762a73.142857 73.142857 0 0 1 73.142857 73.142857v633.904762a73.142857 73.142857 0 0 1-73.142857 73.142857H195.047619a73.142857 73.142857 0 0 1-73.142857-73.142857V195.047619a73.142857 73.142857 0 0 1 73.142857-73.142857h633.904762z m0 268.190476H195.047619v438.857143h633.904762V390.095238z m-390.095238 59.733333a48.761905 48.761905 0 0 1 24.185905 6.436572l194.31619 111.006476a48.761905 48.761905 0 0 1 0 84.675048l-194.31619 111.030857A48.761905 48.761905 0 0 1 390.095238 720.62781V498.590476a48.761905 48.761905 0 0 1 48.761905-48.761905z m24.380952 90.770286v137.996191l120.758857-68.998096L463.238095 540.623238zM341.333333 195.047619H195.047619v121.904762h146.285714V195.047619z m268.190477 0h-195.04762v121.904762h195.04762V195.047619z m219.428571 0h-146.285714v121.904762h146.285714V195.047619z" p-id="2488" fill="#ffffff"></path></svg>