<?xml version="1.0" standalone="no"?><!DOCTYPE svg PUBLIC "-//W3C//DTD SVG 1.1//EN" "http://www.w3.org/Graphics/SVG/1.1/DTD/svg11.dtd"><svg t="1752026695052" class="icon" viewBox="0 0 1024 1024" version="1.1" xmlns="http://www.w3.org/2000/svg" p-id="16646" xmlns:xlink="http://www.w3.org/1999/xlink" width="200" height="200"><path d="M67.147541 436.459016v495.213115c0 28.537705 21.822951 50.360656 50.360656 50.360656h738.622951c28.537705 0 50.360656-21.822951 50.360655-50.360656V436.459016H67.147541z" fill="#455A64" p-id="16647"></path><path d="M167.868852 436.459016v495.213115c0 28.537705 21.822951 50.360656 50.360656 50.360656h738.622951c28.537705 0 50.360656-21.822951 50.360656-50.360656V436.459016H167.868852z" fill="#546E7A" p-id="16648"></path><path d="M872.918033 794.019672H302.163934c-10.072131 0-16.786885-6.714754-16.786885-16.786885v-134.295082c0-10.072131 6.714754-16.786885 16.786885-16.786885h570.754099c10.072131 0 16.786885 6.714754 16.786885 16.786885v134.295082c0 8.393443-6.714754 16.786885-16.786885 16.786885z" fill="#26C6DA" p-id="16649"></path><path d="M167.868852 436.459016h839.344263v125.90164H167.868852z" fill="#90A4AE" p-id="16650"></path><path d="M486.819672 626.15082v167.868852M688.262295 626.15082v167.868852" fill="#26C6DA" p-id="16651"></path><path d="M276.983607 562.360656h100.721311l100.721312-125.90164h-100.721312zM503.606557 562.360656h100.721312l100.721311-125.90164h-100.721311zM730.229508 562.360656h100.721312l100.721311-125.90164h-100.721311z" fill="#37474F" p-id="16652"></path><path d="M891.383607 142.688525L115.829508 463.318033 67.147541 347.488525l728.55082-302.163935c25.180328-10.072131 55.396721 1.678689 65.468852 26.859017l30.216394 70.504918z" fill="#90A4AE" p-id="16653"></path><path d="M100.721311 335.737705c-47.003279 0-83.934426 36.931148-83.934426 83.934426s36.931148 83.934426 83.934426 83.934426h83.934427V335.737705H100.721311z" fill="#78909C" p-id="16654"></path><path d="M992.104918 142.688525L216.55082 463.318033 167.868852 347.488525l728.55082-302.163935c25.180328-10.072131 55.396721 1.678689 65.468853 26.859017l30.216393 70.504918z" fill="#90A4AE" p-id="16655"></path><path d="M201.442623 419.672131m-83.934426 0a83.934426 83.934426 0 1 0 167.868852 0 83.934426 83.934426 0 1 0-167.868852 0Z" fill="#90A4AE" p-id="16656"></path><path d="M201.442623 419.672131m-50.360656 0a50.360656 50.360656 0 1 0 100.721312 0 50.360656 50.360656 0 1 0-100.721312 0Z" fill="#455A64" p-id="16657"></path><path d="M525.429508 335.737705l-92.327869 38.609836-141.009836-77.219672 92.327869-38.609836zM945.101639 162.832787L851.095082 201.442623l-141.009836-78.898361L804.091803 83.934426zM735.265574 248.445902l-92.327869 38.609836-141.009836-77.219672 92.327869-38.609836z" fill="#37474F" p-id="16658"></path></svg>