<?xml version="1.0" standalone="no"?><!DOCTYPE svg PUBLIC "-//W3C//DTD SVG 1.1//EN" "http://www.w3.org/Graphics/SVG/1.1/DTD/svg11.dtd"><svg t="1752024429907" class="icon" viewBox="0 0 1024 1024" version="1.1" xmlns="http://www.w3.org/2000/svg" p-id="11456" xmlns:xlink="http://www.w3.org/1999/xlink" width="200" height="200"><path d="M917.806 229.076c-22.208-30.292-53.174-65.7-87.178-99.704s-69.412-64.964-99.704-87.178C679.35 4.374 654.33 0 640 0H144C99.888 0 64 35.888 64 80v864c0 44.112 35.882 80 80 80h736c44.112 0 80-35.888 80-80V320c0-14.332-4.372-39.35-42.194-90.924z m-132.432-54.45c30.7 30.7 54.8 58.398 72.58 81.374H704V102.054c22.98 17.78 50.678 41.878 81.374 72.572zM896 944c0 8.672-7.328 16-16 16H144c-8.672 0-16-7.328-16-16V80c0-8.672 7.328-16 16-16 0 0 495.956-0.002 496 0v224c0 17.672 14.32 32 32 32h224v624zM256 512h320v320H256V512z m320 128l192-128v320L576 704z" p-id="11457" fill="#ffffff"></path></svg>